<?xml version="1.0" encoding="utf-8"?>
<!-- Generator: Adobe Illustrator 16.0.0, SVG Export Plug-In . SVG Version: 6.00 Build 0)  -->
<!DOCTYPE svg PUBLIC "-//W3C//DTD SVG 1.0//EN" "http://www.w3.org/TR/2001/REC-SVG-20010904/DTD/svg10.dtd">
<svg version="1.0" id="Layer_1" xmlns="http://www.w3.org/2000/svg" xmlns:xlink="http://www.w3.org/1999/xlink" x="0px" y="0px"
	 width="800px" height="800px" viewBox="0 0 800 800" enable-background="new 0 0 800 800" xml:space="preserve">
<g id="Homepage">
	<g>
		<g id="Home_8_" transform="translate(-72.000000, -7240.000000)">
			<g id="Group-24_8_" transform="translate(72.000000, 7240.000000)">
				<g id="Group-7_8_" transform="translate(13.000000, 3.526700)">
					<path id="Fill-1_8_" fill="#EC3728" d="M124.407,394.27v-1.376l-11.656-10.033h-1.358c-3.206,3.541-8.156,6.196-13.692,6.196
						c-8.644,0-15.444-6.591-15.444-15.639S89.057,357.78,97.7,357.78c5.536,0,10.486,2.654,13.692,6.196h1.358l11.656-10.033
						v-1.378c-6.119-7.473-15.732-12.292-26.612-12.292c-20.005,0-35.154,14.163-35.154,33.145c0,0.736,0.167,1.413,0.216,2.135
						c8.187,5.568,15.412,10.025,21.637,14.105c8.97,5.675,16.211,10.899,22.174,15.751
						C114.101,403.531,120.126,399.456,124.407,394.27 M69.943,393.915c4.673,5.738,11.268,9.853,19.046,11.613
						c-5.254-2.957-10.343-5.855-15.082-9.065C72.518,395.602,71.281,394.768,69.943,393.915"/>
					<path id="Fill-3_8_" fill="#EC3728" d="M191.907,402.335l-2.915-12.589l-1.066-0.69c-0.584,0.296-1.067,0.69-2.525,0.69
						c-2.236,0-3.596-2.362-4.761-4.227c-1.941-2.955-3.496-4.529-4.854-5.214c7.087-3.147,11.849-9.048,11.849-17.509
						c0-13.082-8.936-21.344-25.542-21.344h-28.944v63.932h19.229v-22.426h1.749c4.273,0,9.715,9.245,12.24,13.379
						c5.245,8.36,9.42,10.227,16.897,10.227c3.496,0,6.411-1.28,8.159-2.851L191.907,402.335z M168.015,363.877
						c0,4.233-3.106,6.296-6.703,6.296h-8.936v-12.984h8.936C164.908,357.189,168.015,359.55,168.015,363.877L168.015,363.877z"/>
					<path id="Fill-5_8_" fill="#EC3728" d="M266.202,373.418c0-18.981-15.149-33.144-35.252-33.144
						c-20.109,0-35.258,14.162-35.258,33.144c0,18.982,15.148,33.146,35.258,33.146
						C251.053,406.563,266.202,392.301,266.202,373.418 M246.583,373.418c0,9.146-6.995,15.639-15.633,15.639
						c-8.645,0-15.639-6.493-15.639-15.639c0-9.145,6.994-15.637,15.639-15.637C239.588,357.78,246.583,364.273,246.583,373.418"/>
				</g>
				<polygon id="Fill-8_8_" fill="#EC3728" points="375.447,344.979 357.093,344.979 345.728,380.388 333.686,344.979 
					322.033,344.979 310.087,380.191 298.726,344.979 280.366,344.979 279.491,346.454 302.998,408.91 314.65,408.91 
					327.857,374.094 341.164,408.91 352.82,408.91 376.322,346.454 				"/>
				<path id="Fill-9_8_" fill="#EC3728" d="M446.733,376.847c0-19.082-12.725-31.868-33.41-31.868h-29.427v63.931h29.427
					C434.009,408.91,446.733,396.125,446.733,376.847 M427.116,376.945c0,10.424-6.12,16.229-14.568,16.229h-9.422v-32.458h9.422
					C420.996,360.717,427.116,366.522,427.116,376.945"/>
				<polygon id="Fill-11_8_" fill="#EC3728" points="548.598,360.717 567.827,360.717 567.827,344.979 510.141,344.979 
					510.141,360.717 529.369,360.717 529.369,408.91 548.598,408.91 				"/>
				<path id="Fill-12_8_" fill="#EC3728" d="M629.305,366.322c0-13.082-8.937-21.344-25.54-21.344H574.82v63.932h19.231v-22.426
					h4.564l11.944,22.426h19.134l0.873-1.474l-12.82-23.706C624.642,380.485,629.305,374.685,629.305,366.322 M609.685,367.403
					c0,4.233-3.107,6.294-6.702,6.294h-8.931v-12.984h8.931C606.577,360.714,609.685,363.077,609.685,367.403"/>
				<polygon id="Fill-14_8_" fill="#EC3728" points="640.957,408.91 660.186,408.91 660.186,344.979 640.957,344.979 				"/>
				<polygon id="Fill-15_8_" fill="#EC3728" points="708.941,373.602 730.692,346.456 729.819,344.979 709.33,344.979 
					691.554,367.702 691.554,344.979 672.325,344.979 672.325,408.91 691.554,408.91 691.554,389.239 695.051,385.109 
					711.37,408.91 731.472,408.91 732.347,407.437 				"/>
				<polygon id="Fill-16_8_" fill="#EC3728" points="737.59,344.979 737.59,408.916 785.952,408.916 785.952,393.178 
					756.816,393.178 756.816,384.323 778.767,384.323 778.767,369.568 756.816,369.568 756.816,360.719 785.664,360.719 
					785.664,344.979 				"/>
				<g id="Group-23_8_" transform="translate(0.000000, 0.526700)">
					<path id="Fill-17_8_" fill="#EC3728" d="M479.263,409.143c14.083,0,26.311-6.883,26.311-20.152
						c0-14.463-12.323-18.202-23.2-21.35c-4.276-1.277-8.655-2.756-8.655-5.904c0-2.263,2.432-3.64,6.126-3.64
						c6.316,0,11.656,3.936,14.373,6.496h1.358l9.031-10.817v-1.377c-4.757-5.407-14.465-9.536-25.152-9.536
						c-14.956,0-25.341,8.061-25.341,19.762c0,12.594,11.45,18.104,21.16,20.857c6.317,1.771,10.599,2.067,10.599,5.509
						c0,2.462-3.014,3.936-7.683,3.936c-5.925,0-13.111-3.837-16.6-7.279h-1.359l-8.933,11.212v1.376
						C457.024,404.625,467.313,409.143,479.263,409.143"/>
					<path id="Fill-19_8_" fill="#EC3728" d="M147.738,467.903c-4.658-10.659-14.015-24.34-50.669-43.873
						c-16.902-9.395-45.78-23.864-71.753-51.36c2.354,9.926,14.414,31.737,66.286,58.972
						C105.967,439.505,130.258,446.872,147.738,467.903"/>
					<path id="Fill-21_8_" fill="#EC3728" d="M145.399,449.644c-4.421-12.599-12.401-28.728-50.245-52.688
						c-18.431-12.077-45.487-27.245-81.106-65.913c2.546,10.424,13.799,37.53,70.521,72.721
						C103.203,416.387,127.251,424.173,145.399,449.644"/>
				</g>
			</g>
		</g>
	</g>
</g>
</svg>
